<?xml version="1.0" encoding="UTF-8"?>
<svg xmlns="http://www.w3.org/2000/svg" xmlns:xlink="http://www.w3.org/1999/xlink" width="21pt" height="18pt" viewBox="0 0 21 18" version="1.1">
<g id="surface1">
<path style=" stroke:none;fill-rule:nonzero;fill:rgb(0%,0%,0%);fill-opacity:1;" d="M 8.71875 17.5625 L 6.816406 16.953125 C 6.609375 16.890625 6.5 16.660156 6.550781 16.445312 L 10.820312 0.296875 C 10.878906 0.078125 11.085938 -0.046875 11.289062 0.015625 L 13.191406 0.625 C 13.398438 0.6875 13.507812 0.917969 13.449219 1.132812 L 9.183594 17.28125 C 9.125 17.5 8.921875 17.625 8.71875 17.5625 Z M 5.15625 13.710938 L 6.515625 12.117188 C 6.65625 11.949219 6.648438 11.679688 6.492188 11.523438 L 3.660156 8.789062 L 6.492188 6.054688 C 6.648438 5.898438 6.660156 5.628906 6.515625 5.460938 L 5.15625 3.867188 C 5.015625 3.707031 4.777344 3.691406 4.625 3.851562 L 0.121094 8.484375 C -0.0429688 8.652344 -0.0429688 8.925781 0.121094 9.085938 L 4.625 13.726562 C 4.777344 13.886719 5.015625 13.875 5.15625 13.710938 Z M 15.382812 13.726562 L 19.890625 9.09375 C 20.050781 8.925781 20.050781 8.652344 19.890625 8.492188 L 15.382812 3.851562 C 15.234375 3.691406 14.996094 3.703125 14.851562 3.867188 L 13.492188 5.460938 C 13.347656 5.625 13.359375 5.890625 13.519531 6.050781 L 16.347656 8.789062 L 13.519531 11.523438 C 13.359375 11.679688 13.347656 11.949219 13.492188 12.117188 L 14.851562 13.710938 C 14.988281 13.875 15.222656 13.886719 15.382812 13.726562 Z M 15.382812 13.726562 "/>
</g>
</svg>
